<svg width="166" height="166" viewBox="0 0 166 166" fill="none" xmlns="http://www.w3.org/2000/svg">
<defs>
<linearGradient id="lt-favicon-gradient" x1="22" y1="16" x2="146" y2="150" gradientUnits="userSpaceOnUse">
<stop offset="0%" stop-color="#0EA5E9"/>
<stop offset="52%" stop-color="#6366F1"/>
<stop offset="100%" stop-color="#8B5CF6"/>
</linearGradient>
</defs>
<rect x="8" y="8" width="150" height="150" rx="36" fill="url(#lt-favicon-gradient)"/>
<path d="M41 59.5C41 53.7 45.7 49 51.5 49C57.3 49 62 53.7 62 59.5V115H95C100.8 115 105.5 119.7 105.5 125.5C105.5 131.3 100.8 136 95 136H51.5C45.7 136 41 131.3 41 125.5V59.5Z" fill="white"/>
<path d="M108.5 59.5C108.5 53.7 113.2 49 119 49H145.5C151.3 49 156 53.7 156 59.5C156 65.3 151.3 70 145.5 70H136V125.5C136 131.3 131.3 136 125.5 136C119.7 136 115 131.3 115 125.5V70H119C113.2 70 108.5 65.3 108.5 59.5Z" fill="white"/>
</svg>
